<svg width="151" height="44" viewBox="0 0 151 44" fill="none" xmlns="http://www.w3.org/2000/svg">
<g clip-path="url(#clip0_3381_15479)">
<path d="M148.328 11.2022H148.047V9.86565H147.543V9.60547H148.836V9.86565H148.332V11.2022H148.328Z" fill="#862BFF"/>
<path d="M149.916 10.8098H149.905L149.408 10.0613V11.2019H149.131V9.60156H149.429L149.916 10.3572L150.399 9.60156H150.698V11.2019H150.421V10.0542L149.916 10.8063V10.8098Z" fill="#862BFF"/>
<path d="M1.24001 34.394C0.554272 34.394 0 33.838 0 33.1501V30.9367C0 30.2488 0.554272 29.6928 1.24001 29.6928C2.29881 29.6928 3.0556 29.4219 3.50684 28.8766C3.95807 28.3313 4.18546 27.5044 4.18546 26.3888V12.827C4.18546 11.3016 5.41836 10.0684 6.9355 10.0684C8.4562 10.0684 9.68555 11.3051 9.68555 12.827V26.5848C9.68555 29.2544 9.06732 31.2219 7.82731 32.4907C6.58731 33.7596 4.70065 34.394 2.1709 34.394H1.24001Z" fill="#631ED1"/>
<path d="M14.219 2.71948C14.219 1.21539 15.4342 0 16.93 0C18.4294 0 19.6409 1.21896 19.6409 2.71948V19.6637C19.6409 20.4407 19.7902 20.9789 20.0851 21.2783C20.38 21.5776 20.8525 21.7238 21.4992 21.7238H22.5438C23.0589 21.7238 23.4462 21.9127 23.7056 22.2869C23.965 22.6612 24.0929 23.292 24.0929 24.1724C24.0929 25.1062 23.9685 25.7157 23.7234 26.0008C23.4782 26.2859 23.0838 26.4285 22.5402 26.4285H18.71C17.0934 26.4285 15.9387 26.0329 15.2494 25.2416C14.5566 24.4504 14.2119 23.2136 14.2119 21.5313V2.71948H14.219Z" fill="#631ED1"/>
<path d="M45.9481 26.4287C44.9426 26.4287 44.1218 26.2397 43.4894 25.8655C42.8569 25.4913 42.3737 24.9923 42.0362 24.3685C41.6738 25.1705 41.1266 25.7158 40.3911 26.0009C39.6557 26.2861 38.6537 26.4287 37.3888 26.4287H35.8788C34.8697 26.4287 34.0454 26.2397 33.3988 25.8655C32.7521 25.4913 32.2618 24.9923 31.9278 24.3685C31.5654 25.199 31.0218 25.7479 30.3006 26.0188C29.5757 26.2896 28.556 26.4251 27.2414 26.4251H22.594C22.0789 26.4251 21.6916 26.2754 21.4322 25.9796C21.1728 25.6837 21.0449 25.1063 21.0449 24.2509C21.0449 23.3456 21.1693 22.6969 21.4144 22.3084C21.6596 21.9199 22.054 21.7239 22.5976 21.7239H25.1949C25.9445 21.7239 26.4207 21.535 26.6267 21.1608C26.8328 20.7865 26.9358 20.0915 26.9358 19.0828V15.6256C26.9358 14.1001 28.1687 12.8669 29.6859 12.8669C31.2066 12.8669 32.4359 14.1037 32.4359 15.6256V19.6282C32.4359 20.4586 32.6953 21.0146 33.2105 21.2998C33.7257 21.5849 34.2942 21.7275 34.9159 21.7275C35.4062 21.7275 35.8006 21.6776 36.0991 21.5707C36.394 21.4673 36.6072 21.3105 36.7386 21.1037C36.8665 20.897 36.9518 20.619 36.9909 20.2697C37.03 19.9204 37.0477 19.4856 37.0477 18.9688V15.6256C37.0477 14.1001 38.2806 12.8669 39.7978 12.8669C41.3185 12.8669 42.5478 14.1037 42.5478 15.6256V19.589C42.5478 20.4693 42.8108 21.0467 43.3437 21.3176C43.8731 21.5885 44.4736 21.7239 45.1451 21.7239C45.6354 21.7239 46.0085 21.674 46.2678 21.5671C46.5272 21.4637 46.7191 21.3033 46.8505 21.0824C46.9785 20.8614 47.0566 20.5762 47.0815 20.227C47.1064 19.8777 47.1206 19.4428 47.1206 18.926V12.8241C47.1206 11.2986 48.3535 10.0654 49.8706 10.0654C51.3913 10.0654 52.6207 11.3022 52.6207 12.8241V19.6246C52.6704 20.2733 52.9511 20.783 53.4521 21.1608C53.9566 21.535 54.6601 21.7239 55.5626 21.7239H56.4544C56.9696 21.7239 57.3568 21.9057 57.6162 22.2692C57.8756 22.6328 58.0035 23.228 58.0035 24.0585C58.0035 25.6374 57.4883 26.4287 56.4544 26.4287C55.4204 26.4287 54.621 26.311 53.8962 26.0794C53.1714 25.8477 52.5674 25.3166 52.0735 24.4862C51.7111 25.2382 51.1817 25.7479 50.4853 26.0223C49.7889 26.2932 48.9859 26.4287 48.0834 26.4287H45.9516H45.9481Z" fill="#631ED1"/>
<path d="M56.4471 26.4287C55.9319 26.4287 55.5624 26.279 55.3421 25.9832C55.1219 25.6874 55.0117 25.11 55.0117 24.2546C55.0117 23.3492 55.1148 22.7006 55.3208 22.3121C55.5269 21.9236 55.9035 21.7275 56.4436 21.7275H61.4427C61.9579 21.7275 62.3452 21.9164 62.6045 22.2907C62.8639 22.6649 62.9918 23.2815 62.9918 24.1369C62.9918 25.0957 62.8675 25.7194 62.6223 26.001C62.3771 26.2861 61.9828 26.4287 61.4391 26.4287H56.44H56.4471Z" fill="#631ED1"/>
<path d="M73.5117 26.6997C72.1402 26.6997 70.8789 26.5251 69.7242 26.1758C68.573 25.8265 67.6065 25.2099 66.832 24.3295C66.4696 24.8463 66.0503 25.242 65.5707 25.5164C65.091 25.7873 64.6078 25.9976 64.1175 26.1366C63.6272 26.2792 63.1475 26.3647 62.6856 26.3896C62.2202 26.4146 61.808 26.4289 61.4456 26.4289C60.9304 26.4289 60.5431 26.2613 60.2838 25.9227C60.0244 25.5877 59.8965 24.9889 59.8965 24.1335C59.8965 23.2282 60.0208 22.5973 60.266 22.248C60.5112 21.8988 60.9055 21.7241 61.4492 21.7241H62.5719C63.1404 21.7241 63.6698 21.4782 64.1601 20.9863C64.6504 20.4945 64.9205 19.5749 64.9738 18.2276V17.4506C64.9738 15.9216 65.2118 14.6385 65.6915 13.6049C66.1711 12.5677 66.8036 11.7408 67.5923 11.1171C68.3811 10.4969 69.2871 10.0549 70.3104 9.79475C71.3337 9.53456 72.3996 9.40625 73.5152 9.40625C74.6309 9.40625 75.7394 9.54882 76.7769 9.83395C77.8108 10.1191 78.724 10.6003 79.5127 11.2703C80.3015 11.944 80.9304 12.8457 81.3958 13.972C81.8613 15.0983 82.0958 16.5168 82.0958 18.2276C82.0958 19.8066 81.8755 21.1431 81.4349 22.2302C80.9943 23.3173 80.3939 24.1941 79.63 24.8535C78.8661 25.5129 77.9601 25.9869 76.9119 26.272C75.8638 26.5572 74.7304 26.6997 73.5152 26.6997H73.5117ZM73.4904 14.1074C71.3479 14.1074 70.2749 15.4155 70.2749 18.0316C70.2749 19.5072 70.5449 20.5372 71.0885 21.1218C71.6321 21.7063 72.4316 21.995 73.4904 21.995C74.5492 21.995 75.3735 21.7027 75.8922 21.1218C76.4074 20.5372 76.6668 19.5072 76.6668 18.0316C76.6668 15.4155 75.608 14.1074 73.4904 14.1074Z" fill="#631ED1"/>
<path d="M102.736 25.4945C101.52 25.4945 100.312 24.9563 99.4987 23.9298C95.4696 18.8437 93.0393 12.9379 92.4744 6.84665C92.2612 4.56556 93.9311 2.54467 96.2051 2.33438C98.4755 2.11696 100.494 3.7957 100.703 6.07678C101.122 10.5605 102.942 14.9516 105.969 18.7724C107.39 20.5652 107.092 23.1742 105.304 24.5963C104.544 25.2023 103.638 25.4981 102.736 25.4981V25.4945Z" fill="#862BFF"/>
<path d="M126.413 34.8191C125.947 36.7081 124.26 37.9662 122.405 37.9662C122.071 37.9662 121.741 37.927 121.407 37.8451C114.631 36.1592 108.246 32.6592 103.243 27.9794C101.886 26.7141 100.632 25.3561 99.5021 23.9269C98.3083 22.4228 98.3261 20.3413 99.424 18.8693C99.6265 18.5877 99.8788 18.3311 100.167 18.103C101.353 17.1585 102.895 16.9696 104.217 17.4721C104.885 17.7287 105.496 18.1636 105.972 18.7659C107.13 20.2272 108.452 21.5888 109.902 22.8362C113.714 26.1046 118.418 28.5532 123.4 29.7971C125.613 30.346 126.963 32.595 126.416 34.8191H126.413Z" fill="#B54CFE"/>
<path d="M130.666 38.9921C127.603 38.9921 124.477 38.6071 121.407 37.8444C119.193 37.2919 117.843 35.0429 118.39 32.8224C118.941 30.6019 121.183 29.2475 123.396 29.7964C127.45 30.8051 131.597 30.9762 135.384 30.2883C138.881 29.6539 142.903 27.4298 142.732 23.2561C142.636 20.9679 144.409 19.0361 146.69 18.9434C148.968 18.8437 150.897 20.6257 150.989 22.914C151.305 30.6091 145.628 36.85 136.859 38.4467C134.851 38.8138 132.773 38.9956 130.666 38.9956V38.9921Z" fill="url(#paint0_linear_3381_15479)"/>
<path d="M146.857 27.2303C144.654 27.2303 142.821 25.4838 142.732 23.2562C142.537 18.523 138.216 15.3686 134.574 14.1105C129.668 12.4104 124.292 12.1466 119.033 13.3513C116.809 13.8574 114.592 12.4638 114.084 10.2291C113.576 7.99789 114.969 5.77383 117.196 5.26772C123.961 3.72086 130.904 4.07015 137.271 6.27282C145.304 9.05289 150.687 15.5861 150.989 22.9141C151.082 25.2023 149.312 27.1341 147.031 27.2267C146.974 27.2267 146.914 27.2303 146.857 27.2303Z" fill="#FF8E00"/>
<path d="M109.899 22.8387L107.941 25.6259L104.488 27.5007C104.488 27.5007 103.909 27.7181 103.241 27.9819C101.883 26.7166 100.629 25.3586 99.4992 23.9294C98.3054 22.4253 98.3232 20.3438 99.421 18.8718L104.211 17.4746C104.878 17.7312 105.49 18.1661 105.966 18.7684C107.124 20.2297 108.446 21.5913 109.895 22.8387H109.899Z" fill="url(#paint1_linear_3381_15479)"/>
<path d="M100.498 23.5733C99.4885 23.5733 98.4794 23.2062 97.6835 22.4613C96.0136 20.9002 95.9177 18.2769 97.4739 16.6018C102.665 11.0095 109.668 6.982 117.193 5.26406C119.414 4.75438 121.634 6.15155 122.139 8.3863C122.647 10.6175 121.254 12.8415 119.027 13.3477C113.1 14.7021 107.593 17.8671 103.521 22.2546C102.708 23.1314 101.603 23.5769 100.494 23.5769L100.498 23.5733Z" fill="#FFD202"/>
<path d="M92.2437 44.0001H92.2046C89.9236 43.9787 88.0902 42.1039 88.1115 39.8157C88.1932 31.2688 91.5189 23.0248 97.4773 16.6057C99.0335 14.9305 101.649 14.8342 103.318 16.3954C104.988 17.9565 105.084 20.5797 103.528 22.2549C98.9127 27.227 96.4398 33.3289 96.3794 39.8941C96.3581 42.1716 94.5105 44.0001 92.2472 44.0001H92.2437Z" fill="url(#paint2_linear_3381_15479)"/>
<path d="M23.5708 37.2705H24.1144C24.1713 37.2705 24.2175 37.3168 24.2175 37.3739V38.0012C24.2175 38.0582 24.1713 38.1045 24.1144 38.1045H23.5708C23.514 38.1045 23.4678 38.0582 23.4678 38.0012V37.3739C23.4678 37.3168 23.514 37.2705 23.5708 37.2705Z" fill="#631ED1"/>
<path d="M22.2319 37.2705H22.7756C22.8324 37.2705 22.8786 37.3168 22.8786 37.3739V38.0012C22.8786 38.0582 22.8324 38.1045 22.7756 38.1045H22.2319C22.1751 38.1045 22.1289 38.0582 22.1289 38.0012V37.3739C22.1289 37.3168 22.1751 37.2705 22.2319 37.2705Z" fill="#631ED1"/>
<path d="M35.8501 37.2705H36.3937C36.4506 37.2705 36.4968 37.3168 36.4968 37.3739V38.0012C36.4968 38.0582 36.4506 38.1045 36.3937 38.1045H35.8501C35.7933 38.1045 35.7471 38.0582 35.7471 38.0012V37.3739C35.7471 37.3168 35.7933 37.2705 35.8501 37.2705Z" fill="#631ED1"/>
<path d="M37.186 37.2705H37.7297C37.7865 37.2705 37.8327 37.3168 37.8327 37.3739V38.0012C37.8327 38.0582 37.7865 38.1045 37.7297 38.1045H37.186C37.1292 38.1045 37.083 38.0582 37.083 38.0012V37.3739C37.083 37.3168 37.1292 37.2705 37.186 37.2705Z" fill="#631ED1"/>
<path d="M50.2723 30.3066H49.7251C49.6682 30.3066 49.6221 30.3529 49.6221 30.41V31.0409C49.6221 31.0979 49.6682 31.1442 49.7251 31.1442H50.2723C50.3292 31.1442 50.3753 31.0979 50.3753 31.0409V30.41C50.3753 30.3529 50.3292 30.3066 50.2723 30.3066Z" fill="#631ED1"/>
<path d="M49.0782 32.2026V35.25C49.0782 35.4531 49.032 35.5957 48.936 35.6812C48.8437 35.7632 48.7087 35.806 48.5346 35.806H46.0901C46.0474 35.806 45.9977 35.806 45.9337 35.8024C45.8698 35.8024 45.8236 35.7917 45.7881 35.7775C45.9337 35.6884 46.083 35.5672 46.2357 35.4175C46.3885 35.2678 46.5271 35.0967 46.655 34.9078C46.7794 34.7189 46.8824 34.5157 46.9641 34.2948C47.0458 34.0738 47.0849 33.8492 47.0849 33.6176C47.0849 33.0936 46.9215 32.6909 46.5946 32.4093C46.2677 32.1277 45.749 31.9852 45.0384 31.9852C44.747 31.9852 44.4734 32.0101 44.2247 32.0636C43.9725 32.117 43.7593 32.1812 43.5816 32.256C43.404 32.3344 43.2654 32.4129 43.1624 32.4984C43.0629 32.5804 43.0096 32.6552 43.0096 32.7194V33.2861C43.0096 33.3217 43.0558 33.3681 43.1446 33.4215C43.2903 33.5178 43.4466 33.6318 43.6101 33.7637C43.7735 33.892 43.9298 34.0453 44.0755 34.2235C44.2212 34.4017 44.3526 34.6084 44.4663 34.8401C44.58 35.0753 44.6653 35.3426 44.7222 35.642C44.5694 35.7062 44.4201 35.7489 44.2745 35.7739C44.1288 35.7988 43.9547 35.8095 43.7522 35.8095H42.2279C41.9224 35.8095 41.6772 35.7454 41.4925 35.6171C41.3077 35.4888 41.2153 35.2892 41.2153 35.0254V29.3797C41.2153 29.3084 41.1798 29.2764 41.1123 29.2764H40.7463C40.6753 29.2764 40.6433 29.312 40.6433 29.3797V34.9327C40.6433 35.0789 40.6397 35.2072 40.6291 35.3212C40.6184 35.4317 40.5971 35.5244 40.5616 35.5993C40.526 35.6741 40.4692 35.7276 40.3946 35.7632C40.3164 35.7988 40.2134 35.8167 40.0819 35.8167H38.2556C37.9501 35.8167 37.7049 35.7525 37.5202 35.6242C37.3354 35.4959 37.243 35.2963 37.243 35.0325V32.2881C37.243 32.2168 37.2075 32.1848 37.14 32.1848H36.774C36.703 32.1848 36.671 32.2204 36.671 32.2881V34.9399C36.671 35.086 36.6639 35.2143 36.6568 35.3284C36.6461 35.4389 36.6248 35.5315 36.5893 35.6064C36.5538 35.6812 36.5005 35.7347 36.4223 35.7703C36.3441 35.806 36.2411 35.8238 36.1096 35.8238H35.1219C35.0117 35.8238 34.9123 35.8131 34.8199 35.7882C34.731 35.7632 34.6529 35.7169 34.5925 35.6456C34.5285 35.5743 34.4823 35.4816 34.4468 35.364C34.4113 35.2464 34.3935 35.0967 34.3935 34.9149C34.4077 34.8365 34.4148 34.7296 34.4184 34.587C34.4184 34.4445 34.4219 34.3268 34.4219 34.2377C34.4219 33.4892 34.2656 32.9332 33.9494 32.5626C33.6367 32.1919 33.1748 32.0065 32.5673 32.0065C31.3379 32.0065 30.7232 32.7835 30.7232 34.3411C30.7232 34.4373 30.7232 34.5336 30.7268 34.6298C30.7268 34.7225 30.7339 34.8116 30.741 34.8971C30.741 35.0789 30.7197 35.2286 30.677 35.3462C30.6344 35.4638 30.5847 35.56 30.5207 35.6349C30.4568 35.7097 30.3893 35.7596 30.3111 35.7882C30.2329 35.8167 30.1583 35.8309 30.0801 35.8309H29.0569C28.7655 35.8309 28.5666 35.7668 28.4671 35.6385C28.3676 35.5101 28.3143 35.3212 28.3143 35.0789V32.3024C28.3143 32.2311 28.2788 32.199 28.2112 32.199H27.0956C26.8433 32.199 26.5982 32.224 26.353 32.2774C26.1079 32.3309 25.8911 32.4271 25.6957 32.5661C25.55 32.6766 25.4221 32.8227 25.3084 32.9974C25.2729 33.0116 25.2374 33.0473 25.2054 33.1008C25.081 33.2754 25.0171 33.557 25.0171 33.949V34.7759C25.0171 34.9791 25.0064 35.1466 24.9851 35.2856C24.9638 35.421 24.9211 35.5315 24.8536 35.6099C24.7861 35.6884 24.6902 35.7489 24.5623 35.7846C24.4344 35.8202 24.2638 35.8381 24.0542 35.8381H21.6843C21.5102 35.8381 21.3823 35.7953 21.3042 35.7133C21.2224 35.6278 21.1834 35.4852 21.1834 35.282V32.9796C21.1834 32.9083 21.1478 32.8762 21.0803 32.8762H20.7144C20.6433 32.8762 20.6113 32.9118 20.6113 32.9796V35.2749C20.6113 35.6955 20.7037 35.9913 20.892 36.166C21.0803 36.3406 21.393 36.4261 21.83 36.4261H24.1786C24.4557 36.4261 24.6902 36.3976 24.8785 36.3406C24.9354 36.3263 24.9851 36.305 25.0348 36.2764V36.3192L25.0455 36.2658C25.1556 36.2087 25.2516 36.1374 25.3262 36.0448C25.4363 35.9129 25.5181 35.7311 25.5678 35.4995C25.6175 35.2678 25.6424 34.9791 25.6424 34.6298V33.8742C25.685 33.6104 25.7739 33.393 25.9124 33.2255C26.1079 32.9796 26.4454 32.8584 26.9251 32.8584H27.7387V35.225C27.7387 35.5814 27.8417 35.8701 28.0478 36.0875C28.2539 36.3085 28.5737 36.419 29.0142 36.419H30.1192C30.3146 36.419 30.4958 36.3905 30.6628 36.3335C30.8298 36.2764 30.9791 36.1339 31.107 35.9058C31.2597 36.1161 31.4623 36.2658 31.7181 36.3549C31.9703 36.444 32.251 36.4903 32.5566 36.4903C32.8622 36.4903 33.1357 36.444 33.3809 36.3549C33.6225 36.2658 33.825 36.1089 33.9849 35.8951C34.1022 36.0982 34.2656 36.2337 34.4681 36.3085C34.6742 36.3834 34.898 36.419 35.1396 36.419H36.1523C36.4152 36.419 36.6177 36.3691 36.7563 36.2658C36.8948 36.166 37.0085 36.0305 37.0903 35.863C37.1862 36.1018 37.3425 36.2515 37.5486 36.3192C37.7511 36.3834 37.9927 36.4155 38.2734 36.419C38.2805 36.419 38.2841 36.419 38.2912 36.419H40.1281C40.391 36.419 40.5935 36.3691 40.7321 36.2658C40.8707 36.166 40.9844 36.0305 41.0661 35.863C41.162 36.1018 41.3148 36.2515 41.5244 36.3192C41.7056 36.3762 41.9153 36.4083 42.1569 36.4155C42.1888 36.4155 42.2279 36.4155 42.267 36.4155H43.603C43.8055 36.4155 44.0364 36.4012 44.3029 36.3691C44.5658 36.337 44.811 36.2515 45.0348 36.1125C45.2373 36.2372 45.4505 36.3192 45.6708 36.3584C45.8947 36.3976 46.1292 36.4155 46.3814 36.4155H48.4173C48.6696 36.4155 48.8721 36.3905 49.0284 36.337C49.1848 36.2836 49.3091 36.2052 49.3979 36.0947C49.4868 35.9877 49.5507 35.8487 49.5862 35.6812C49.6218 35.5137 49.6395 35.3177 49.6395 35.0931V32.7051H50.2755L50.2969 32.117H49.1705C49.0995 32.117 49.0675 32.1527 49.0675 32.2204L49.0782 32.2026ZM33.5159 35.4745C33.3169 35.7418 33.0007 35.8773 32.5637 35.8773C32.1267 35.8773 31.8105 35.7418 31.6186 35.4745C31.4232 35.2072 31.3273 34.7937 31.3273 34.2449C31.3273 33.7209 31.4232 33.311 31.6186 33.0152C31.814 32.7194 32.1267 32.5697 32.5637 32.5697C33.0007 32.5697 33.3169 32.7194 33.5159 33.0188C33.7149 33.3182 33.8108 33.728 33.8108 34.2449C33.8108 34.7973 33.7113 35.2072 33.5159 35.4745ZM45.2658 35.4496C45.1627 34.8686 44.9602 34.3803 44.6618 33.9847C44.3633 33.5855 43.9973 33.2398 43.5639 32.9475C43.6065 32.919 43.674 32.8833 43.7664 32.8441C43.8588 32.8014 43.9725 32.7586 44.1004 32.7194C44.2283 32.6766 44.374 32.641 44.5338 32.616C44.6937 32.5875 44.8607 32.5732 45.0348 32.5732C45.2302 32.5732 45.4114 32.5911 45.582 32.6303C45.7525 32.6695 45.9018 32.7301 46.0297 32.812C46.1576 32.8976 46.2606 33.001 46.3388 33.1328C46.4169 33.2611 46.4525 33.4215 46.4525 33.6104C46.4525 33.8136 46.4169 34.0061 46.3494 34.1914C46.2784 34.3767 46.186 34.5478 46.0723 34.7082C45.9586 34.8686 45.8271 35.0112 45.685 35.1395C45.5429 35.2678 45.4008 35.3711 45.2622 35.4531L45.2658 35.4496Z" fill="#631ED1"/>
<path d="M48.9363 30.3066H48.3892C48.3323 30.3066 48.2861 30.3529 48.2861 30.41V31.0409C48.2861 31.0979 48.3323 31.1442 48.3892 31.1442H48.9363C48.9932 31.1442 49.0394 31.0979 49.0394 31.0409V30.41C49.0394 30.3529 48.9932 30.3066 48.9363 30.3066Z" fill="#631ED1"/>
<path d="M59.1688 30.3066H58.6216C58.5647 30.3066 58.5186 30.3529 58.5186 30.41V31.0409C58.5186 31.0979 58.5647 31.1442 58.6216 31.1442H59.1688C59.2257 31.1442 59.2718 31.0979 59.2718 31.0409V30.41C59.2718 30.3529 59.2257 30.3066 59.1688 30.3066Z" fill="#631ED1"/>
<path d="M57.2857 30.3066H57.8293C57.8861 30.3066 57.9323 30.353 57.9323 30.41V31.0373C57.9323 31.0943 57.8861 31.1407 57.8293 31.1407H57.2857C57.2288 31.1407 57.1826 31.0943 57.1826 31.0373V30.41C57.1826 30.353 57.2288 30.3066 57.2857 30.3066Z" fill="#631ED1"/>
<path d="M63.7378 37.2705H64.2814C64.3383 37.2705 64.3845 37.3168 64.3845 37.3739V38.0012C64.3845 38.0582 64.3383 38.1045 64.2814 38.1045H63.7378C63.681 38.1045 63.6348 38.0582 63.6348 38.0012V37.3739C63.6348 37.3168 63.681 37.2705 63.7378 37.2705Z" fill="#631ED1"/>
<path d="M62.4019 37.2705H62.9455C63.0023 37.2705 63.0485 37.3168 63.0485 37.3739V38.0012C63.0485 38.0582 63.0023 38.1045 62.9455 38.1045H62.4019C62.345 38.1045 62.2988 38.0582 62.2988 38.0012V37.3739C62.2988 37.3168 62.345 37.2705 62.4019 37.2705Z" fill="#631ED1"/>
<path d="M67.2378 37.2285H67.7814C67.8383 37.2285 67.8845 37.2749 67.8845 37.3319V37.9592C67.8845 38.0162 67.8383 38.0625 67.7814 38.0625H67.2378C67.181 38.0625 67.1348 38.0162 67.1348 37.9592V37.3319C67.1348 37.2749 67.181 37.2285 67.2378 37.2285Z" fill="#631ED1"/>
<path d="M78.8807 30.3066H78.3335C78.2766 30.3066 78.2305 30.3529 78.2305 30.41V31.0409C78.2305 31.0979 78.2766 31.1442 78.3335 31.1442H78.8807C78.9376 31.1442 78.9837 31.0979 78.9837 31.0409V30.41C78.9837 30.3529 78.9376 30.3066 78.8807 30.3066Z" fill="#631ED1"/>
<path d="M79.0271 32.2026V35.25C79.0271 35.4531 78.9809 35.5957 78.885 35.6812C78.7926 35.7632 78.6576 35.806 78.4835 35.806H77.7196C77.7196 35.806 77.7196 35.806 77.7125 35.806C77.7125 35.806 77.7125 35.806 77.7089 35.806H77.6556C77.3501 35.806 77.1049 35.7418 76.9202 35.6135C76.7354 35.4852 76.643 35.2856 76.643 35.0219C76.643 34.9434 76.643 34.8579 76.6466 34.7617C76.6466 34.6654 76.6537 34.5585 76.6537 34.448C76.6537 34.17 76.6253 33.8813 76.5649 33.589C76.5045 33.2968 76.3872 33.0295 76.2096 32.7942C76.0319 32.5554 75.7832 32.363 75.4634 32.2133C75.1437 32.0636 74.7244 31.9887 74.2021 31.9887C73.7438 31.9887 73.2996 32.06 72.8697 32.199C72.4398 32.338 72.0454 32.5055 71.6937 32.7016L71.683 29.3797C71.683 29.3084 71.6475 29.2764 71.58 29.2764H71.2105C71.1429 29.2764 71.1074 29.312 71.1074 29.3797V34.9114C71.1074 35.0931 71.0968 35.2428 71.0825 35.3569C71.0648 35.4709 71.0328 35.5636 70.9902 35.6349C70.944 35.7062 70.8836 35.7525 70.8019 35.7775C70.7201 35.8024 70.6242 35.8131 70.5034 35.8131H68.7802C68.4746 35.8131 68.2295 35.7489 68.0447 35.6206C67.86 35.4923 67.7676 35.2927 67.7676 35.029V32.2845C67.7676 32.2133 67.732 32.1812 67.6645 32.1812H67.2986C67.2275 32.1812 67.1955 32.2168 67.1955 32.2845V34.9363C67.1955 35.0824 67.192 35.2108 67.1813 35.3248C67.1707 35.4353 67.1493 35.528 67.1138 35.6028C67.0783 35.6777 67.0214 35.7311 66.9468 35.7668C66.8687 35.8024 66.7656 35.8202 66.6342 35.8202H64.8079C64.5023 35.8202 64.2572 35.7561 64.0724 35.6278C63.8877 35.4995 63.7953 35.2999 63.7953 35.0361V32.2917C63.7953 32.2204 63.7598 32.1883 63.6923 32.1883H63.3263C63.2552 32.1883 63.2233 32.224 63.2233 32.2917V34.9434C63.2233 35.0896 63.2161 35.2179 63.209 35.3319C63.1984 35.4424 63.1771 35.5351 63.1415 35.6099C63.106 35.6848 63.0527 35.7383 62.9745 35.7739C62.8964 35.8095 62.7933 35.8274 62.6619 35.8274H60.1037V34.2555C60.1037 32.755 59.4926 32.003 58.2703 32.003C58.0074 32.003 57.7623 32.0493 57.5349 32.1384C57.311 32.2275 57.1121 32.3665 56.9451 32.5519C56.7781 32.7372 56.6466 32.9689 56.5542 33.2469C56.4619 33.5249 56.4157 33.8528 56.4157 34.2306C56.4157 34.6298 56.4619 34.9648 56.5507 35.2428C56.6395 35.5173 56.771 35.7454 56.9415 35.92C57.1121 36.0947 57.3146 36.2194 57.5526 36.2978C57.7907 36.3762 58.0536 36.4119 58.345 36.4119H59.5139V37.1568C59.5139 37.4491 59.4251 37.6415 59.2474 37.7271C59.0698 37.8126 58.7749 37.859 58.3663 37.859H55.9857C55.7335 37.859 55.499 37.8304 55.2822 37.7698C55.062 37.7093 54.8701 37.613 54.7067 37.4776C54.5432 37.3421 54.4153 37.1639 54.3194 36.9501C54.227 36.7327 54.1773 36.4725 54.1773 36.166C54.1773 35.9913 54.195 35.8202 54.2306 35.6491C54.2661 35.4781 54.3123 35.3141 54.3727 35.1609C54.4331 35.0076 54.497 34.865 54.5645 34.7367C54.6356 34.6084 54.6996 34.4944 54.7635 34.3946C54.799 34.3375 54.7884 34.2948 54.7315 34.2591L54.3975 34.0488C54.3336 33.9989 54.291 33.9989 54.2625 34.0488C54.0813 34.309 53.9214 34.6298 53.7829 35.0112C53.6443 35.3961 53.5732 35.7953 53.5732 36.2159C53.5732 36.9216 53.7793 37.474 54.1879 37.8696C54.5965 38.2688 55.165 38.4684 55.8863 38.4684H58.4835C58.8175 38.4684 59.0911 38.4399 59.3007 38.3793C59.5139 38.3187 59.6773 38.2332 59.7946 38.1156C59.9118 38.0015 59.9936 37.8554 60.0326 37.6807C60.0753 37.5061 60.0966 37.3029 60.0966 37.0748V36.4155H62.7187C62.9817 36.4155 63.1842 36.3656 63.3227 36.2622C63.4613 36.1624 63.575 36.027 63.6567 35.8594C63.7527 36.0982 63.909 36.2479 64.1151 36.3157C64.3176 36.3798 64.5592 36.4119 64.8399 36.4155C64.847 36.4155 64.8505 36.4155 64.8576 36.4155H66.6946C66.9575 36.4155 67.16 36.3656 67.2986 36.2622C67.4371 36.1624 67.5508 36.027 67.6326 35.8594C67.7285 36.0982 67.8813 36.2479 68.0909 36.3157C68.2934 36.3798 68.535 36.4119 68.8157 36.4155C68.8228 36.4155 68.8264 36.4155 68.8335 36.4155H70.5567C70.6882 36.4155 70.7983 36.4083 70.88 36.3941C70.9653 36.3798 71.0399 36.3549 71.111 36.3192C71.1536 36.3549 71.2034 36.3798 71.2673 36.3941C71.3313 36.4083 71.3881 36.4155 71.445 36.4155H74.5539C74.8026 36.4155 75.03 36.4083 75.2325 36.4012C75.435 36.3905 75.6127 36.3656 75.7654 36.3228C75.9182 36.28 76.0532 36.2159 76.1669 36.1303C76.2806 36.0448 76.3766 35.9272 76.4547 35.781C76.5222 36.0376 76.675 36.2087 76.9131 36.2943C77.1476 36.3798 77.4176 36.419 77.716 36.419C77.716 36.419 77.7196 36.419 77.7232 36.419C77.7232 36.419 77.7231 36.419 77.7267 36.419H78.384C78.6363 36.419 78.8388 36.3941 78.9951 36.3406C79.1515 36.2871 79.2758 36.2087 79.3646 36.0982C79.4535 35.9913 79.5174 35.8523 79.553 35.6848C79.5885 35.5173 79.6063 35.3212 79.6063 35.0967V32.7087H80.2422L80.2636 32.1206H79.1373C79.0662 32.1206 79.0342 32.1562 79.0342 32.224L79.0271 32.2026ZM59.521 35.806H58.345C57.8937 35.806 57.5597 35.6848 57.343 35.4389C57.1263 35.1929 57.0161 34.7937 57.0161 34.2342C57.0161 33.7102 57.1263 33.3003 57.3501 33.0081C57.5739 32.7158 57.876 32.5697 58.2668 32.5697C58.7109 32.5697 59.0307 32.7194 59.2297 33.0188C59.4286 33.3182 59.5246 33.728 59.5246 34.2449V35.806H59.521ZM75.9644 35.1751C75.9218 35.3569 75.8543 35.4959 75.7619 35.5886C75.6695 35.6812 75.5451 35.7418 75.3888 35.7668C75.236 35.7917 75.0477 35.8024 74.8239 35.8024H71.5693C71.6048 35.724 71.6297 35.6242 71.651 35.4923C71.6723 35.364 71.683 35.2464 71.683 35.143V33.311C71.8429 33.2255 72.0241 33.14 72.2266 33.0509C72.4291 32.9617 72.6423 32.8798 72.8662 32.8085C73.09 32.7372 73.321 32.6802 73.5555 32.6338C73.7935 32.5875 74.028 32.5661 74.2554 32.5661C74.5965 32.5661 74.8807 32.6089 75.1081 32.698C75.3355 32.7871 75.5167 32.9083 75.6517 33.0687C75.7868 33.2291 75.8827 33.4251 75.9395 33.6568C75.9964 33.8884 76.0248 34.1451 76.0248 34.4302C76.0248 34.7438 76.0035 34.9933 75.9608 35.1751H75.9644Z" fill="#631ED1"/>
<path d="M80.2166 30.3066H79.6694C79.6125 30.3066 79.5664 30.3529 79.5664 30.41V31.0409C79.5664 31.0979 79.6125 31.1442 79.6694 31.1442H80.2166C80.2735 31.1442 80.3196 31.0979 80.3196 31.0409V30.41C80.3196 30.3529 80.2735 30.3066 80.2166 30.3066Z" fill="#631ED1"/>
</g>
<defs>
<linearGradient id="paint0_linear_3381_15479" x1="118.266" y1="28.966" x2="151" y2="28.966" gradientUnits="userSpaceOnUse">
<stop stop-color="#FC742E"/>
<stop offset="1" stop-color="#FC3278"/>
</linearGradient>
<linearGradient id="paint1_linear_3381_15479" x1="92.2688" y1="9.38388" x2="106.181" y2="24.998" gradientUnits="userSpaceOnUse">
<stop offset="0.34" stop-color="#662480"/>
<stop offset="0.7" stop-color="#4C4794"/>
<stop offset="0.75" stop-color="#52479A"/>
<stop offset="0.82" stop-color="#6448AD"/>
<stop offset="0.9" stop-color="#8249CB"/>
<stop offset="0.98" stop-color="#AC4BF5"/>
<stop offset="1" stop-color="#B54CFE"/>
</linearGradient>
<linearGradient id="paint2_linear_3381_15479" x1="109.472" y1="11.0812" x2="88.3832" y2="40.4124" gradientUnits="userSpaceOnUse">
<stop stop-color="#00AEFD"/>
<stop offset="1" stop-color="#007FFD"/>
</linearGradient>
<clipPath id="clip0_3381_15479">
<rect width="151" height="44" fill="white"/>
</clipPath>
</defs>
</svg>
